PathFileType  4	(X/Y/Z) C:\Users\antoi\Documents\MyRepositories\mobilecap\ResultsAnalysis
DataRate	CameraRate	NumFrames	NumMarkers	Units	OrigDataRate	OrigDataStartFrame	OrigNumFrames
100.0	100.0	7	51	mm	100.0	641	1280
Frame#	Time	r_knee			r_shank_antsup			r_ankle			r_calc			r_5meta			r_toe			L_knee			L_shank_antsup			L_ankle			L_calc			L_5meta			L_toe			r_sh2			r_sh3			r_sh4			L_sh2			L_sh3			r_thigh1			r_thigh2			r_thigh3			r_thigh4			r_thigh5			L_thigh1			L_thigh2			L_thigh3			L_thigh4			r.ASIS			r.PSIS			L.ASIS			L.PSIS			C7			R_Shoulder			L_Shoulder			R_Sternum			L_Sternum			R_humerus			R_elbow_med			R_elbow_lat			R_forearm			R_wrist_radius			R_wrist_ulna			L_humerus			L_elbow_med			L_elbow_lat			L_forearm			L_wrist_radius			L_wrist_ulna			R_HJC			L_HJC			R_HJC_reg			L_HJC_reg			
		X1	Y1	Z1	X2	Y2	Z2	X3	Y3	Z3	X4	Y4	Z4	X5	Y5	Z5	X6	Y6	Z6	X7	Y7	Z7	X8	Y8	Z8	X9	Y9	Z9	X10	Y10	Z10	X11	Y11	Z11	X12	Y12	Z12	X13	Y13	Z13	X14	Y14	Z14	X15	Y15	Z15	X16	Y16	Z16	X17	Y17	Z17	X18	Y18	Z18	X19	Y19	Z19	X20	Y20	Z20	X21	Y21	Z21	X22	Y22	Z22	X23	Y23	Z23	X24	Y24	Z24	X25	Y25	Z25	X26	Y26	Z26	X27	Y27	Z27	X28	Y28	Z28	X29	Y29	Z29	X30	Y30	Z30	X31	Y31	Z31	X32	Y32	Z32	X33	Y33	Z33	X34	Y34	Z34	X35	Y35	Z35	X36	Y36	Z36	X37	Y37	Z37	X38	Y38	Z38	X39	Y39	Z39	X40	Y40	Z40	X41	Y41	Z41	X42	Y42	Z42	X43	Y43	Z43	X44	Y44	Z44	X45	Y45	Z45	X46	Y46	Z46	X47	Y47	Z47	X48	Y48	Z48	X49	Y49	Z49	X50	Y50	Z50	X51	Y51	Z51	

641	6.40000000	-101.08011	398.76376	-311.65804	-85.98008	287.21524	-338.99612	-278.65976	88.56183	-384.41170	-333.48013	53.28303	-437.51730	-184.09539	38.44002	-334.76639	-142.63446	55.71325	-372.72288	-168.97781	454.35764	-783.83126	-123.70743	337.34060	-777.87952	-291.39567	97.16205	-804.48607	-335.06993	53.39439	-761.32632	-182.10511	36.01306	-850.57869	-136.85078	55.69320	-803.89245	-148.40054	195.41543	-366.20160	-139.82092	307.57026	-287.91863	-212.50981	225.77365	-321.19203	-183.99973	386.01746	-820.59044	-235.63644	277.55356	-841.44183	-287.87603	634.98144	-289.66108	-202.43008	579.44221	-293.44911	-206.09208	519.18172	-260.03901	-347.49528	543.25663	-263.35617	-248.57126	483.06424	-264.78072	-342.28631	664.32237	-680.62537	-232.33644	605.21477	-727.84523	-416.53902	585.89772	-712.06400	-298.79335	523.76779	-760.88088	-276.00370	638.50626	-360.30796	-415.16406	772.21639	-397.61470	-300.96320	663.87351	-594.59103	-427.17032	787.27347	-507.01111	-93.04547	1077.21212	-438.13962	-32.53904	1017.34222	-294.45194	-26.10980	1026.43406	-582.95456	-7.55000	966.90873	-418.38926	-8.48425	964.57283	-459.91826	-26.39480	909.34994	-221.64523	-130.27258	716.88227	-191.84975	-63.15292	741.11875	-146.02610	10.46077	779.48832	-234.62205	47.64019	821.09061	-320.43577	75.13806	793.86811	-314.35568	10.47398	906.48643	-654.24674	-46.21400	712.16509	-704.06919	20.07753	739.44005	-737.08680	62.07330	768.90931	-639.01527	58.08367	801.66770	-518.27048	88.14630	788.33113	-519.36849	-390.93488	624.07286	-371.90503	-408.42479	639.59825	-559.83049	-374.90143	617.18282	-385.83170	-391.80930	638.38515	-539.86381	
642	6.41000000	-100.49894	397.86691	-311.41341	-85.39772	286.53095	-339.04589	-278.56254	88.46862	-384.46508	-333.45424	53.28976	-437.54458	-184.13728	38.53691	-334.70448	-142.59098	55.64006	-372.74339	-168.53229	453.82331	-784.30809	-122.99489	336.95339	-778.44060	-291.31729	97.09068	-804.39583	-334.77382	53.11334	-761.13054	-182.10193	36.00944	-850.59591	-136.78586	55.65292	-803.80123	-148.09729	195.06654	-366.29064	-139.15481	306.87529	-287.73787	-211.94392	225.14154	-321.07834	-183.29970	385.51467	-820.83718	-235.07826	277.13389	-841.65596	-289.81747	631.50185	-289.44616	-203.25077	576.42664	-293.61957	-206.90795	516.58243	-259.82413	-348.48481	539.18121	-262.90735	-248.97521	480.00626	-264.65666	-344.72524	660.88799	-680.64219	-234.60381	603.78654	-727.86856	-418.06903	581.66268	-712.28514	-299.29659	521.05982	-761.21544	-277.69894	632.71149	-363.47034	-416.56271	766.81756	-397.94111	-302.54696	658.07654	-594.85743	-428.10704	781.63956	-506.84464	-91.00792	1067.94374	-438.35674	-30.65353	1007.83067	-294.49959	-23.98664	1016.65533	-582.49805	-6.51965	957.01931	-418.14483	-7.30440	954.71900	-459.60477	-23.52714	900.25359	-221.99988	-125.97643	707.50415	-189.97724	-58.01667	732.22785	-145.41465	13.32545	771.72826	-235.41425	48.38414	813.89708	-321.66248	76.45968	787.21986	-315.88972	13.27978	897.25329	-653.63543	-42.13902	702.90561	-704.29959	24.26752	730.63930	-736.98507	64.71877	760.63160	-638.43584	59.05368	793.95545	-518.34773	88.94497	780.98989	-518.75995	-392.30318	618.20963	-372.99235	-410.35661	634.41668	-560.80722	-376.45652	612.55417	-388.68329	-392.59801	633.27878	-540.93746	
643	6.42000000	-100.08807	397.20973	-311.07981	-84.92779	286.03335	-339.10113	-278.48499	88.41442	-384.50036	-333.42083	53.29266	-437.56822	-184.16895	38.59993	-334.67348	-142.52993	55.57329	-372.79369	-167.96641	453.24933	-784.75612	-122.37325	336.54786	-778.89821	-291.24298	97.02247	-804.30142	-335.09479	53.65818	-761.43013	-182.11650	36.00068	-850.57313	-136.74717	55.63000	-803.73088	-147.85894	194.77078	-366.46219	-138.33558	305.91445	-287.71173	-211.52321	224.78170	-320.87080	-182.52699	385.09047	-821.23453	-234.58985	276.76409	-841.98978	-291.64878	628.00060	-289.48384	-204.01065	573.83986	-293.99555	-207.81352	514.05085	-259.46973	-349.46727	535.14501	-262.56920	-249.47638	476.93091	-264.73330	-347.24175	657.26887	-680.73580	-236.24551	601.77936	-727.89919	-419.57453	577.39149	-712.59183	-299.87952	518.20325	-761.33718	-279.24971	627.15299	-365.06581	-417.73981	761.43128	-398.06282	-304.16406	652.35999	-594.99610	-429.05606	776.00147	-506.82918	-89.09811	1058.90279	-437.98733	-28.81317	998.31672	-294.59578	-21.86296	1006.89483	-582.20270	-5.46114	947.16634	-417.96864	-6.15788	944.95885	-459.29815	-20.73979	891.16929	-222.34833	-121.43781	697.97693	-188.57926	-52.91335	723.27657	-145.08329	16.12928	763.85006	-236.32487	49.10431	806.65381	-322.98081	77.67173	780.32082	-317.76492	16.00236	888.03599	-652.85536	-38.18643	693.68209	-704.63745	28.43444	721.96016	-736.93703	67.35461	752.55182	-638.00487	60.09016	786.57536	-518.45316	89.78870	773.62343	-518.03681	-393.62603	612.63179	-373.45338	-412.07451	629.05528	-561.21368	-377.98547	607.68394	-390.07710	-393.73410	627.96278	-541.46166	
644	6.43000000	-99.74384	396.66145	-310.83478	-84.59794	285.74972	-339.03507	-278.42287	88.44411	-384.51104	-333.38988	53.30045	-437.58682	-184.16528	38.59121	-334.67725	-142.48418	55.55270	-372.82036	-167.43666	452.66251	-785.02237	-121.74904	336.03808	-779.09323	-291.19706	97.00247	-804.28366	-335.96588	54.77000	-762.07628	-182.13077	36.01012	-850.54946	-136.71913	55.59461	-803.66092	-147.68555	194.53808	-366.60045	-137.61770	305.09399	-287.81526	-211.32735	224.67689	-320.72443	-181.70555	384.70495	-821.54194	-234.25076	276.49562	-842.34860	-293.61102	624.67133	-289.53688	-205.29735	571.70694	-293.99209	-208.81531	511.61548	-259.34516	-350.50509	531.28238	-262.31443	-250.07930	474.11525	-264.50879	-349.70430	653.56821	-680.71782	-237.80769	599.67001	-727.88527	-421.00124	573.07941	-713.05052	-300.55591	515.44775	-761.50346	-281.05609	620.96728	-365.14791	-418.56288	755.88465	-398.01822	-305.73041	646.51489	-594.83393	-429.98006	770.46037	-506.89026	-87.08965	1049.99123	-437.42725	-26.99698	988.82233	-294.65547	-19.71480	997.25720	-581.92897	-4.29232	937.36126	-417.72517	-5.08973	935.22919	-458.95278	-18.00336	882.15015	-222.81515	-116.73110	688.31166	-187.60776	-47.85878	714.27803	-144.93264	18.94812	755.94082	-237.32308	49.87720	799.29897	-324.42000	78.85423	773.31732	-319.75521	18.63724	878.94766	-652.13771	-34.25109	684.50617	-704.90148	32.57875	713.28948	-736.74570	70.05643	744.64025	-637.54170	61.30997	779.31744	-518.46723	90.79270	766.41681	-517.46348	-395.38615	606.98235	-373.49799	-413.70399	623.60291	-561.25355	-379.63528	602.28996	-389.95238	-395.49261	622.53558	-541.17647	
645	6.44000000	-99.46176	396.06826	-310.80693	-84.31248	285.49839	-339.00150	-278.37655	88.46619	-384.52201	-333.39129	53.29125	-437.60801	-184.14804	38.57134	-334.67974	-142.46541	55.52529	-372.81555	-167.04868	452.06184	-785.20818	-121.08518	335.46009	-779.04764	-291.16563	97.00795	-804.29896	-336.50155	55.34345	-762.41015	-182.12881	36.03558	-850.54432	-136.70103	55.55985	-803.60669	-147.55076	194.32735	-366.68612	-137.17130	304.65661	-287.92868	-211.18171	224.58151	-320.66945	-180.95848	384.28743	-821.56945	-233.88097	276.19240	-842.49251	-295.83473	621.60302	-289.43937	-207.00164	569.60877	-293.71326	-209.89211	509.32946	-259.44611	-351.65365	527.62438	-262.08739	-250.72342	471.53342	-264.30770	-352.04588	650.08591	-680.82558	-239.52903	597.63144	-727.83219	-422.34630	568.76231	-713.58672	-301.21076	512.86941	-761.84757	-283.56833	614.15035	-365.21974	-419.47003	750.52555	-398.16450	-307.17962	640.75194	-594.77623	-430.94342	765.09951	-506.91663	-85.02620	1041.13940	-437.09657	-25.20626	979.38158	-294.65607	-17.59503	987.75609	-581.48274	-3.10418	927.78442	-417.28087	-3.99778	925.57092	-458.59034	-15.31669	873.18161	-223.32928	-112.15732	678.84968	-186.40489	-42.79755	705.27596	-144.97114	21.82605	748.07768	-238.35333	50.73849	791.84878	-325.90469	80.08662	766.34632	-321.63225	21.22725	869.97932	-651.52226	-30.26202	675.47986	-705.25286	36.75319	704.62751	-736.29338	72.79369	736.81020	-636.93899	62.21383	771.89169	-518.03312	91.96562	759.35239	-516.91179	-397.85600	601.20290	-373.90630	-415.49472	618.49150	-561.66527	-381.73918	597.11472	-389.78124	-397.68403	617.36866	-540.91536	
646	6.45000000	-99.33412	395.48947	-310.85888	-84.06288	285.19283	-339.15503	-278.33806	88.40559	-384.55854	-333.42448	53.25504	-437.63538	-184.13712	38.57167	-334.67712	-142.44978	55.47426	-372.82550	-166.70692	451.41404	-785.27655	-120.49861	334.90095	-778.92665	-291.12324	96.98534	-804.27662	-336.45452	55.17421	-762.28866	-182.13288	36.07146	-850.53777	-136.69834	55.54639	-803.59588	-147.42606	194.09549	-366.79409	-136.92582	304.45660	-287.97132	-211.03086	224.43692	-320.68595	-180.32956	383.85953	-821.53043	-233.32483	275.81603	-842.33485	-298.22144	618.76097	-289.15872	-208.79492	567.41268	-293.68725	-211.08652	507.19638	-259.45340	-352.91468	524.05860	-261.90496	-251.45120	468.89774	-264.59462	-354.34848	646.84262	-681.03953	-241.22603	595.56577	-727.62731	-423.63341	564.55785	-713.96345	-301.77903	510.33066	-762.24551	-286.44346	607.63963	-365.45210	-420.66363	745.57371	-398.58246	-308.49039	635.34276	-595.19707	-431.98796	759.83365	-507.05209	-83.29321	1032.54460	-436.79657	-23.43656	970.04318	-294.70917	-15.56956	978.37232	-581.03042	-2.21050	918.39232	-416.91979	-2.84855	916.04964	-458.23285	-12.67260	864.24790	-223.81092	-107.74021	669.69291	-184.85117	-37.70135	696.36851	-145.21401	24.68843	740.20644	-239.42135	51.63744	784.39620	-327.35832	81.36529	759.32417	-323.60335	23.84839	861.09609	-650.82212	-26.15876	666.60387	-705.69803	40.98425	696.07213	-735.64621	75.60894	729.01032	-636.27231	62.62711	764.32047	-517.21088	93.20020	752.31363	-516.20404	-400.55855	595.66004	-374.66780	-417.27562	613.69980	-562.44141	-384.16933	592.52627	-389.89672	-399.96470	612.41541	-541.20068	
647	6.46000000	-99.35199	395.04387	-310.86459	-83.91818	284.96213	-339.35441	-278.29741	88.34614	-384.60536	-333.45118	53.22525	-437.66102	-184.12677	38.56710	-334.68749	-142.42443	55.45123	-372.89503	-166.31348	450.77672	-785.16640	-120.03404	334.42983	-778.91421	-291.07164	96.93465	-804.20287	-336.34455	54.95119	-762.10050	-182.17180	36.15205	-850.55149	-136.69017	55.54013	-803.57954	-147.35302	193.88196	-366.95107	-136.76642	304.31361	-288.00983	-210.94148	224.32053	-320.73843	-179.77806	383.47912	-821.62325	-232.73437	275.52050	-842.09189	-300.62940	616.06016	-288.71541	-210.65176	565.27638	-293.78219	-212.42319	505.18252	-259.08698	-354.27813	520.52456	-261.78086	-252.35428	466.24727	-264.90232	-356.56712	643.37634	-680.63363	-242.78211	593.54809	-727.28249	-424.86332	560.56061	-714.09158	-302.29983	507.77970	-762.55659	-289.13182	601.62350	-365.51412	-421.87251	740.77713	-399.03183	-309.71665	630.25388	-595.77937	-433.07982	754.59958	-507.35795	-81.90247	1024.29588	-436.43105	-21.73677	960.86658	-294.82132	-13.56015	969.14204	-580.79429	-1.87770	908.76545	-417.25112	-1.79261	906.66247	-457.88942	-10.05753	855.47534	-224.36454	-103.22419	660.57315	-183.60836	-32.61453	687.65299	-145.58491	27.50548	732.33415	-240.56620	52.50412	776.95627	-328.83361	82.65463	752.21306	-325.80214	26.57175	852.35262	-650.08610	-21.89806	657.71364	-705.75814	45.28883	687.69865	-735.05822	78.58932	721.25155	-635.66279	63.38479	756.97732	-516.61621	94.47653	745.36059	-515.56702	-403.02599	590.37410	-375.40782	-418.86159	608.98209	-563.20390	-386.43989	588.18225	-389.88391	-402.13662	607.54089	-541.59583	
